<svg width="218" height="218" viewBox="0 0 218 218" fill="none" xmlns="http://www.w3.org/2000/svg">
<g clip-path="url(#clip0_53_10)">
<rect width="218" height="218" rx="78" fill="#FF6900"/>
<path d="M140.063 99.2199V148.467C140.063 149.672 139.078 150.657 137.873 150.657H120.353C119.149 150.657 118.163 149.672 118.163 148.467V99.2199C118.163 93.17 113.263 88.2699 107.213 88.2699H64.5905C63.9882 88.2699 63.4955 88.7626 63.4955 89.3649V148.467C63.4955 149.672 62.51 150.657 61.3055 150.657H43.7855C42.581 150.657 41.5955 149.672 41.5955 148.467V68.5599C41.5955 67.3554 42.581 66.3699 43.7855 66.3699H107.213C125.363 66.3699 140.063 81.0702 140.063 99.2199ZM99.6031 99.2199H82.0831C80.8786 99.2199 79.8931 100.205 79.8931 101.41V148.467C79.8931 149.672 80.8786 150.657 82.0831 150.657H99.6031C100.808 150.657 101.793 149.672 101.793 148.467V101.41C101.793 100.205 100.808 99.2199 99.6031 99.2199ZM173.214 66.3699H155.694C154.49 66.3699 153.504 67.3554 153.504 68.5599V148.467C153.504 149.672 154.49 150.657 155.694 150.657H173.214C174.419 150.657 175.404 149.672 175.404 148.467V68.5599C175.404 67.3554 174.419 66.3699 173.214 66.3699Z" fill="white"/>
</g>
<defs>
<clipPath id="clip0_53_10">
<rect width="218" height="218" fill="white"/>
</clipPath>
</defs>
</svg>
